HIERARCHY
ROOT Hips
{
  OFFSET -102.467 93.6631 130.069
  CHANNELS 6 Xposition Yposition Zposition Zrotation Xrotation Yrotation
  JOINT LeftUpLeg
  {
    OFFSET 8.64259 1.95398 -2.38835
    CHANNELS 3 Zrotation Xrotation Yrotation
    JOINT LeftLeg
    {
      OFFSET 43.7702 0 0
      CHANNELS 3 Zrotation Xrotation Yrotation
      JOINT LeftFoot
      {
        OFFSET 40.6238 0 0
        CHANNELS 3 Zrotation Xrotation Yrotation
        JOINT LeftToeBase
        {
          OFFSET 12.7242 0 0
          CHANNELS 3 Zrotation Xrotation Yrotation
          End Site
          {
            OFFSET 0 0 0
          }
        }
      }
    }
  }
  JOINT RightUpLeg
  {
    OFFSET -8.2249 1.95398 -2.59336
    CHANNELS 3 Zrotation Xrotation Yrotation
    JOINT RightLeg
    {
      OFFSET 43.5653 0 0
      CHANNELS 3 Zrotation Xrotation Yrotation
      JOINT RightFoot
      {
        OFFSET 40.6238 0 0
        CHANNELS 3 Zrotation Xrotation Yrotation
        JOINT RightToeBase
        {
          OFFSET 12.7242 0 0
          CHANNELS 3 Zrotation Xrotation Yrotation
          End Site
          {
            OFFSET 0 0 0
          }
        }
      }
    }
  }
  JOINT Spine
  {
    OFFSET 0.165834 0.87714 6.61349
    CHANNELS 3 Zrotation Xrotation Yrotation
    JOINT Spine1
    {
      OFFSET 7.38963 1.71661e-005 0
      CHANNELS 3 Zrotation Xrotation Yrotation
      JOINT Spine2
      {
        OFFSET 11.9445 1.14441e-005 0
        CHANNELS 3 Zrotation Xrotation Yrotation
        JOINT Spine3
        {
          OFFSET 14.7254 4.19617e-005 0
          CHANNELS 3 Zrotation Xrotation Yrotation
          JOINT Spine4
          {
            OFFSET 10.9679 0 0
            CHANNELS 3 Zrotation Xrotation Yrotation
            JOINT RightShoulder
            {
              OFFSET 2.46616 -1.6653 3.69651
              CHANNELS 3 Zrotation Xrotation Yrotation
              JOINT RightArm
              {
                OFFSET 13.0012 0 0
                CHANNELS 3 Zrotation Xrotation Yrotation
                JOINT RightForeArm
                {
                  OFFSET 28.7848 1.52588e-005 0
                  CHANNELS 3 Zrotation Xrotation Yrotation
                  JOINT RightHand
                  {
                    OFFSET 26.5688 1.52588e-005 0
                    CHANNELS 3 Zrotation Xrotation Yrotation
                    End Site
                    {
                      OFFSET 0 0 0
                    }
                  }
                }
              }
            }
            JOINT LeftShoulder
            {
              OFFSET 2.38034 -1.29275 -3.7523
              CHANNELS 3 Zrotation Xrotation Yrotation
              JOINT LeftArm
              {
                OFFSET 16.3182 6.10351e-005 0
                CHANNELS 3 Zrotation Xrotation Yrotation
                JOINT LeftForeArm
                {
                  OFFSET 27.0901 0 0
                  CHANNELS 3 Zrotation Xrotation Yrotation
                  JOINT LeftHand
                  {
                    OFFSET 24.5451 1.52588e-005 0
                    CHANNELS 3 Zrotation Xrotation Yrotation
                    End Site
                    {
                      OFFSET 0 0 0
                    }
                  }
                }
              }
            }
            JOINT Neck
            {
              OFFSET 5.0226 -0.0266342 0
              CHANNELS 3 Zrotation Xrotation Yrotation
              JOINT Head
              {
                OFFSET 6.69363 2.86102e-005 0
                CHANNELS 3 Zrotation Xrotation Yrotation
                End Site
                {
                  OFFSET 0 0 0
                }
              }
            }
          }
        }
      }
    }
  }
}
MOTION
Frames:	7
Frame Time:	0.0416667
-148.977 88.5611 152.04 -77.0833 -37.1011 92.8849 8.04751 8.57927 -82.6002 -47.1381 2.97422 -15.1748 45.8213 -6.76239 -1.1657 59.7283 -0.603053 8.9519 -14.122 -15.0459 -86.6533 -29.0042 1.69209 4.67777 60.9227 7.74534 12.3447 20.3062 2.2524 3.21742 1.57963 -12.0671 -88.5512 51.031 3.67581 0.815154 39.3651 3.70814 0.652371 16.7974 3.26076 1.88321 36.8101 3.26078 1.88321 101.803 -53.3773 -82.7127 28.5093 -6.25694 -0.689073 -2.58649 -9.66725 -12.4973 -7.72125 -0.447131 1.66435 -85.6428 -51.78 85.2746 -25.6466 9.73411 -23.8116 0.208826 33.5938 -5.53113 -4.05962 -0.0545814 -6.81139 10.2422 1.3063 -3.92349 -21.117 0.679803 9.98363 
-142.26 90.3451 146.437 -78.0077 -33.575 93.9217 7.52882 -2.7198 -81.1343 -53.0476 0.72318 -18.7664 51.266 -1.73933 7.33537 54.2908 -0.727624 7.81017 -16.2498 -8.29093 -86.0308 -26.7519 1.72779 2.48575 64.3154 6.88055 13.4662 21.0897 2.15035 3.84948 1.30467 -12.0282 -87.6192 50.8999 3.96575 2.82623 39.2324 4.08627 2.64886 16.6917 2.93355 3.88702 36.7043 2.93354 3.887 101.724 -52.9485 -82.8327 27.1853 -8.59029 -5.85506 -2.55072 -9.41455 -14.9826 -11.1543 -0.669611 1.84244 -86.2288 -53.2082 84.6101 -26.4051 8.59677 -20.4809 -3.5463 36.9547 0.398642 -3.54938 -0.0706292 -6.28613 9.03449 0.601447 -2.86019 -19.8749 0.0950233 8.05099 
-136.286 91.6221 141.015 -79.6482 -29.7431 94.0204 15.5287 -7.69224 -79.2665 -39.9186 -10.3846 -24.9185 54.7247 0.7093 12.2762 53.6176 -0.274228 9.2579 -19.3106 -1.38789 -85.8468 -21.6798 3.20977 1.68634 66.0498 6.36633 15.22 20.8965 2.28052 4.97045 1.0153 -12.0463 -86.8635 50.8882 4.08852 4.52485 39.2163 4.28351 4.34075 16.721 2.54206 5.54204 36.7337 2.54206 5.54202 100.562 -53.083 -84.5815 24.8696 -10.4883 -9.96066 -3.19018 -7.3804 -20.1299 -11.2465 -0.663453 1.64651 -85.884 -53.8638 85.1987 -26.7681 7.09684 -13.8211 -2.88371 33.5997 -0.00540872 -5.28459 -0.0649274 -5.52936 8.50094 0.551997 -2.68643 -19.9694 0.106485 7.19772 
-130.319 91.4119 135.552 -80.2837 -28.4824 93.1056 31.6278 -3.39549 -75.8684 -16.1184 -31.5574 -22.2228 55.4051 -1.92259 13.666 46.5813 -0.319177 7.80103 -19.188 3.23359 -85.2935 -21.3182 4.1097 1.04693 68.098 5.6882 16.685 24.2063 1.8508 6.65472 1.13979 -11.9902 -86.5812 50.7593 4.50984 4.90125 39.0876 4.72096 4.69829 16.5972 2.83141 6.02697 36.6099 2.8314 6.02696 100.149 -51.7045 -85.2495 23.1414 -11.4157 -15.5698 -3.9418 -6.98575 -22.829 -9.64847 -0.436998 0.109524 -86.3959 -55.5847 84.7006 -26.4849 6.19783 -8.72701 -2.90489 31.6076 -0.00504983 -3.96044 -0.0785185 -5.47727 7.81185 0.61095 -1.07785 -18.24 0.0203219 6.45862 
-123.753 90.2598 129.281 -80.1046 -26.9739 92.0693 43.9762 -4.00643 -78.7688 -0.847919 -44.204 0.434342 58.7527 -9.58842 9.74029 39.371 0.254741 9.36092 -18.5951 6.68416 -84.7659 -25.0609 0.781608 1.39548 67.2061 5.22969 16.1362 34.9541 0.818355 10.5399 1.22335 -11.902 -86.3168 50.5667 4.84942 5.2939 38.8949 5.0774 5.07569 16.4123 3.03802 6.50272 36.425 3.03804 6.50271 99.0228 -51.3771 -86.9893 22.3142 -10.9946 -16.9065 -4.65722 -6.01071 -26.1278 -9.73121 -0.368463 -0.813041 -86.0446 -56.1634 85.2738 -26.6025 4.72499 -6.9386 -2.52812 33.1031 -0.00496863 -5.24115 -0.0340473 -6.62533 7.48879 0.766692 -1.68963 -17.7559 0.255214 7.01952 
-116.643 89.3369 122.172 -80.5578 -26.3545 92.461 37.0296 -7.2413 -79.2817 -9.96953 -34.977 -6.99875 56.466 -9.97632 10.2967 36.5905 -0.0728799 6.16037 -19.8632 10.0671 -86.1539 -27.5613 -1.38191 2.07842 60.2069 7.13497 18.7565 44.0153 0.231739 12.9883 0.798423 -12.0527 -86.2195 50.8481 4.2432 5.94361 39.1713 4.50025 5.75171 16.7254 2.26578 6.9396 36.738 2.26577 6.9396 100.102 -52.2734 -85.2995 23.0279 -12.3661 -14.9549 -5.88364 -7.8886 -27.2851 -9.19853 -0.362318 -0.632733 -84.9646 -54.4958 86.6052 -27.3527 3.97686 -6.55165 -2.20192 34.7288 -0.00494662 -6.30956 -0.0520272 -5.46772 8.39192 0.259407 -4.47985 -19.1518 0.206336 7.55459 
-109.843 88.4161 115.095 -79.8864 -27.9679 95.4633 23.8867 -12.9228 -84.4334 -22.3843 -15.3719 -10.881 57.3208 -7.3089 15.7244 33.0562 -0.412333 0.752247 -19.1897 7.70548 -93.279 -38.7106 -4.36603 4.87149 44.4407 12.8098 21.0176 34.976 3.20776 21.1259 0.0334682 -12.1509 -86.647 51.0672 2.6827 6.03718 39.3855 2.94535 5.91383 16.9599 0.748708 6.562 36.9725 0.748718 6.56199 100.549 -53.022 -84.5996 26.218 -11.4655 -9.68213 -6.39019 -9.79872 -25.59 -8.61891 -0.359922 -0.268186 -85.1776 -53.1726 86.1379 -26.8842 4.04151 -7.90235 -2.16085 34.8132 -0.00485554 -5.78953 -0.0537231 -5.63816 9.4749 -0.165403 -6.18013 -19.7425 0.180037 7.47305 
